<svg xmlns="http://www.w3.org/2000/svg" viewBox="0 0 1000 823.4" role="img" aria-label="All Star Players star and P monogram"><path fill="currentColor" d="M690.8 823.4L430.0 628.7L148.5 810.9L261.7 501.9L0.0 306.1L336.7 305.6L457.8 0.0L657.5 688.5Z"/><path fill="currentColor" d="M844.2 478.0L658.0 475.5L642.3 473.2L634.5 467.1L630.1 456.4L603.8 363.0L597.2 335.0L597.2 329.0L599.0 325.0L605.7 321.3L618.4 320.1L762.2 321.5L778.7 319.3L793.8 314.4L804.3 308.3L814.0 300.0L821.0 291.2L826.2 281.1L830.0 267.7L832.3 249.3L832.7 233.4L830.8 220.4L824.3 202.7L814.0 188.8L800.1 179.2L781.6 172.8L764.6 170.8L583.9 165.2L572.1 163.9L564.8 160.8L559.4 154.4L553.8 140.7L515.4 21.0L514.3 12.9L515.8 8.0L520.1 4.8L527.0 3.4L560.6 2.8L839.1 8.6L863.3 10.9L895.6 19.4L924.3 32.8L950.8 53.4L972.2 79.0L982.1 96.1L990.6 116.6L997.4 141.5L1000.0 160.3L996.0 323.1L993.7 345.7L989.6 363.7L979.9 388.5L969.8 406.7L954.5 426.7L937.4 442.7L918.6 455.1L891.7 466.9L872.0 472.8Z"/></svg>